<svg xmlns="http://www.w3.org/2000/svg" xmlns:xlink="http://www.w3.org/1999/xlink" viewBox="0 0 192 64">
<defs/>
<g>
<path stroke="none" fill="#FFFFFF" d="M 0 0 m 0 32 l 0 -16 q 0 -6.6 4.7 -11.3 q 4.7 -4.7 11.3 -4.7 q 6.65 0 11.3 4.7 q 4.7 4.7 4.7 11.3 l 0 16 l -32 0M 0 32 m 32 32 q -13.25 0 -22.6 -9.35 q -9.4 -9.4 -9.4 -22.65 l 32 0 l 0 32M 32 0 m 0 32 l 0 -16 q 0 -6.6 4.7 -11.3 q 4.7 -4.7 11.3 -4.7 q 6.65 0 11.3 4.7 q 4.7 4.7 4.7 11.3 l 0 16 l -32 0M 32 32 m 32 0 q 0 13.25 -9.35 22.6 q -9.4 9.4 -22.65 9.4 l 0 -32 l 32 0M 64 0 m 0 32 l 0 -16 q 0 -6.6 4.7 -11.3 q 4.7 -4.7 11.3 -4.7 q 6.65 0 11.3 4.7 q 4.7 4.7 4.7 11.3 l 0 16 l -32 0M 64 32 m 32 32 q -13.25 0 -22.6 -9.35 q -9.4 -9.4 -9.4 -22.65 l 32 0 l 0 32M 96 0 m 0 32 l 0 -16 q 0 -6.6 4.7 -11.3 q 4.7 -4.7 11.3 -4.7 q 6.65 0 11.3 4.7 q 4.7 4.7 4.7 11.3 l 0 16 l -32 0M 96 32 m 32 0 q 0 13.25 -9.35 22.6 q -9.4 9.4 -22.65 9.4 l 0 -32 l 32 0M 128 0 m 0 32 l 0 -16 q 0 -6.6 4.7 -11.3 q 4.7 -4.7 11.3 -4.7 q 6.65 0 11.3 4.7 q 4.7 4.7 4.7 11.3 l 0 16 l -32 0M 128 32 m 32 32 q -13.25 0 -22.6 -9.35 q -9.4 -9.4 -9.4 -22.65 l 32 0 l 0 32M 160 0 m 0 32 l 0 -16 q 0 -6.6 4.7 -11.3 q 4.7 -4.7 11.3 -4.7 q 6.65 0 11.3 4.7 q 4.7 4.7 4.7 11.3 l 0 16 l -32 0M 160 32 m 32 0 q 0 13.25 -9.35 22.6 q -9.4 9.4 -22.65 9.4 l 0 -32 l 32 0"/>
</g>
</svg>