<svg xmlns="http://www.w3.org/2000/svg" xmlns:xlink="http://www.w3.org/1999/xlink" viewBox="192 160 160 192">
<defs/>
<g>
<path stroke="none" fill="#FFFFFF" d="M 192 192 m 0 32 q 0 -13.25 9.35 -22.6 q 9.4 -9.4 22.65 -9.4 l 0 32 l -32 0"/>
<path stroke="none" fill="#FFFFFF" d="M 192 224 m 0 0 l 32 0 l 0 32 l -32 0 l 0 -32"/>
<path stroke="none" fill="#FFFFFF" d="M 192 256 m 0 0 l 32 0 l 0 32 l -32 0 l 0 -32"/>
<path stroke="none" fill="#FFFFFF" d="M 192 288 m 0 0 l 32 0 l 0 32 l -32 0 l 0 -32"/>
<path stroke="none" fill="#FFFFFF" d="M 192 320 m 32 32 q -13.25 0 -22.6 -9.35 q -9.4 -9.4 -9.4 -22.65 l 32 0 l 0 32"/>
<path stroke="none" fill="#FFFFFF" d="M 224 160 m 0 32 l 0 -16 q 0 -6.6 4.7 -11.3 q 4.7 -4.7 11.3 -4.7 q 6.65 0 11.3 4.7 q 4.7 4.7 4.7 11.3 l 0 16 l -32 0"/>
<path stroke="none" fill="#FFFFFF" d="M 224 192 m 32 0 q 0 13.25 -9.35 22.6 q -9.4 9.4 -22.65 9.4 l 0 -32 l 32 0"/>
<path stroke="none" fill="#FFFFFF" d="M 224 224 m 0 32 q 0 -13.25 9.35 -22.6 q 9.4 -9.4 22.65 -9.4 l 0 32 l -32 0"/>
<path stroke="none" fill="#FFFFFF" d="M 224 256 m 32 32 q -13.25 0 -22.6 -9.35 q -9.4 -9.4 -9.4 -22.65 l 32 0 l 0 32"/>
<path stroke="none" fill="#FFFFFF" d="M 224 320 m 0 0 l 32 0 l 0 32 l -32 0 l 0 -32"/>
<path stroke="none" fill="#FFFFFF" d="M 256 224 m 0 0 q 13.25 0 22.6 9.35 q 9.4 9.4 9.4 22.65 l -32 0 l 0 -32"/>
<path stroke="none" fill="#FFFFFF" d="M 256 256 m 0 32 q 0 -13.25 9.35 -22.6 q 9.4 -9.4 22.65 -9.4 l 0 32 l -32 0"/>
<path stroke="none" fill="#FFFFFF" d="M 256 288 m 32 32 q -13.25 0 -22.6 -9.35 q -9.4 -9.4 -9.4 -22.65 l 32 0 l 0 32"/>
<path stroke="none" fill="#FFFFFF" d="M 256 320 m 0 0 l 32 0 l 0 32 l -32 0 l 0 -32"/>
<path stroke="none" fill="#FFFFFF" d="M 288 160 m 0 32 l 0 -16 q 0 -6.6 4.7 -11.3 q 4.7 -4.7 11.3 -4.7 q 6.65 0 11.3 4.7 q 4.7 4.7 4.7 11.3 l 0 16 l -32 0"/>
<path stroke="none" fill="#FFFFFF" d="M 288 192 m 32 32 q -13.25 0 -22.6 -9.35 q -9.4 -9.4 -9.4 -22.65 l 32 0 l 0 32"/>
<path stroke="none" fill="#FFFFFF" d="M 288 256 m 0 0 q 13.25 0 22.6 9.35 q 9.4 9.4 9.4 22.65 l -32 0 l 0 -32"/>
<path stroke="none" fill="#FFFFFF" d="M 288 288 m 32 0 q 0 13.25 -9.35 22.6 q -9.4 9.4 -22.65 9.4 l 0 -32 l 32 0"/>
<path stroke="none" fill="#FFFFFF" d="M 288 320 m 0 0 l 32 0 l 0 32 l -32 0 l 0 -32"/>
<path stroke="none" fill="#FFFFFF" d="M 320 192 m 0 0 q 13.25 0 22.6 9.35 q 9.4 9.4 9.4 22.65 l -32 0 l 0 -32"/>
<path stroke="none" fill="#FFFFFF" d="M 320 224 m 0 0 l 32 0 l 0 32 l -32 0 l 0 -32"/>
<path stroke="none" fill="#FFFFFF" d="M 320 256 m 0 0 l 32 0 l 0 32 l -32 0 l 0 -32"/>
<path stroke="none" fill="#FFFFFF" d="M 320 288 m 0 0 l 32 0 l 0 32 l -32 0 l 0 -32"/>
<path stroke="none" fill="#FFFFFF" d="M 320 320 m 32 0 q 0 13.25 -9.35 22.6 q -9.4 9.4 -22.65 9.4 l 0 -32 l 32 0"/>
</g>
</svg>