<svg xmlns="http://www.w3.org/2000/svg" xmlns:xlink="http://www.w3.org/1999/xlink" viewBox="160 128 192 224">
<defs/>
<g>
<path stroke="none" fill="#0057A6" d="M 160 192 m 18.6 18.6 q -6.2 6.3 -10.3 13.4 l 23.7 0 l 0 -23.7 q -7.1 4.1 -13.4 10.3"/>
<path stroke="none" fill="#0057A6" d="M 160 224 m 0 30 l 0 2 l 32 0 l 0 -32 l -23.7 0 q -7.8 13.5 -8.3 30"/>
<path stroke="none" fill="#0057A6" d="M 160 256 m 0 0 l 32 0 l 0 32 l -32 0 l 0 -32"/>
<path stroke="none" fill="#0057A6" d="M 160 288 m 32 0 l 0 16 q 0 6.6 -4.7 11.3 q -4.7 4.7 -11.3 4.7 q -6.65 0 -11.3 -4.7 q -4.7 -4.7 -4.7 -11.3 l 0 -16 l 32 0"/>
<path stroke="none" fill="#3399FF" d="M 192 128 m 18.6 18.6 q -6.2 6.3 -10.3 13.4 l 23.7 0 l 0 -23.7 q -7.1 4.1 -13.4 10.3"/>
<path stroke="none" fill="#3399FF" d="M 192 160 m 0 30 l 0 2 l 32 0 l 0 -32 l -23.7 0 q -7.8 13.5 -8.3 30"/>
<path stroke="none" fill="#0057A6" d="M 192 192 m 32 0 l -2 0 q -16.5 0.5 -30 8.3 l 0 23.7 l 32 0 l 0 -32"/>
<path stroke="none" fill="#0057A6" d="M 192 224 m 0 0 l 32 0 l 0 32 l -32 0 l 0 -32"/>
<path stroke="none" fill="#0057A6" d="M 192 256 m 0 0 l 32 0 l 0 32 l -32 0 l 0 -32"/>
<path stroke="none" fill="#0057A6" d="M 192 288 m 32 0 l 0 16 q 0 6.6 -4.7 11.3 q -4.7 4.7 -11.3 4.7 q -6.65 0 -11.3 -4.7 q -4.7 -4.7 -4.7 -11.3 l 0 -16 l 32 0"/>
<path stroke="none" fill="#FF7E14" d="M 192 320 m 0 0 l 32 0 l 0 32 l -32 0 l 0 -32"/>
<path stroke="none" fill="#F7D117" d="M 224 128 m 32 0 l -2 0 q -16.5 0.5 -30 8.3 l 0 23.7 l 32 0 l 0 -32"/>
<path stroke="none" fill="#F7D117" d="M 224 160 m 0 0 l 32 0 l 0 32 l -32 0 l 0 -32"/>
<path stroke="none" fill="#0057A6" d="M 224 192 m 0 0 q 13.25 0 22.6 9.35 q 9.4 9.4 9.4 22.65 l -32 0 l 0 -32"/>
<path stroke="none" fill="#0057A6" d="M 224 224 m 0 0 l 32 0 l 0 32 l -32 0 l 0 -32"/>
<path stroke="none" fill="#0057A6" d="M 224 256 m 0 0 l 32 0 l 0 32 l -32 0 l 0 -32"/>
<path stroke="none" fill="#0057A6" d="M 224 288 m 32 0 l 0 16 q 0 6.6 -4.7 11.3 q -4.7 4.7 -11.3 4.7 q -6.65 0 -11.3 -4.7 q -4.7 -4.7 -4.7 -11.3 l 0 -16 l 32 0"/>
<path stroke="none" fill="#FF7E14" d="M 224 320 m 0 0 q 13.25 0 22.6 9.35 q 9.4 9.4 9.4 22.65 l -32 0 l 0 -32"/>
<path stroke="none" fill="#F7D117" d="M 256 128 m 0 0 l 32 0 l 0 32 l -32 0 l 0 -32"/>
<path stroke="none" fill="#143044" d="M 256 160 m 0 32 l 0 -16 q 0 -6.6 4.7 -11.3 q 4.7 -4.7 11.3 -4.7 q 6.65 0 11.3 4.7 q 4.7 4.7 4.7 11.3 l 0 16 l -32 0"/>
<path stroke="none" fill="#10CB31" d="M 256 192 m 32 0 l 0 16 q 0 6.6 -4.7 11.3 q -4.7 4.7 -11.3 4.7 q -6.65 0 -11.3 -4.7 q -4.7 -4.7 -4.7 -11.3 l 0 -16 l 32 0"/>
<path stroke="none" fill="#F7D117" d="M 256 224 m 0 0 l 32 0 l 0 32 l -32 0 l 0 -32"/>
<path stroke="none" fill="#3399FF" d="M 256 256 m 0 0 l 32 0 l 0 32 l -32 0 l 0 -32"/>
<path stroke="none" fill="#3399FF" d="M 256 288 m 0 0 l 32 0 l 0 32 l -32 0 l 0 -32"/>
<path stroke="none" fill="#FF7E14" d="M 256 320 m 0 0 l 32 0 l 0 32 l -32 0 l 0 -32"/>
<path stroke="none" fill="#F7D117" d="M 288 128 m 0 0 q 13.25 0 22.6 9.35 q 9.4 9.4 9.4 22.65 l -32 0 l 0 -32"/>
<path stroke="none" fill="#F7D117" d="M 288 160 m 0 0 l 32 0 l 0 32 l -32 0 l 0 -32"/>
<path stroke="none" fill="#F7D117" d="M 288 192 m 0 0 l 32 0 l 0 32 l -32 0 l 0 -32"/>
<path stroke="none" fill="#FF7E14" d="M 288 224 m 32 0 q 0 13.25 -9.35 22.6 q -9.4 9.4 -22.65 9.4 l 0 -32 l 32 0"/>
<path stroke="none" fill="#3399FF" d="M 288 256 m 0 0 l 32 0 l 0 32 l -32 0 l 0 -32"/>
<path stroke="none" fill="#3399FF" d="M 288 288 m 32 0 q 0 13.25 -9.35 22.6 q -9.4 9.4 -22.65 9.4 l 0 -32 l 32 0"/>
<path stroke="none" fill="#FF7E14" d="M 288 320 m 0 0 q 13.25 0 22.6 9.35 q 9.4 9.4 9.4 22.65 l -32 0 l 0 -32"/>
<path stroke="none" fill="#FF7E14" d="M 320 160 m 0 0 q 13.25 0 22.6 9.35 q 9.4 9.4 9.4 22.65 l -32 0 l 0 -32"/>
<path stroke="none" fill="#FF7E14" d="M 320 192 m 0 0 l 32 0 l 0 32 l -32 0 l 0 -32"/>
<path stroke="none" fill="#FF7E14" d="M 320 224 m 32 0 q 0 13.25 -9.35 22.6 q -9.4 9.4 -22.65 9.4 l 0 -32 l 32 0"/>
</g>
</svg>